<?xml version="1.0" encoding="utf-8"?>
<!-- Generator: Adobe Illustrator 28.1.0, SVG Export Plug-In . SVG Version: 6.00 Build 0)  -->
<svg version="1.1" id="Layer_1" xmlns="http://www.w3.org/2000/svg" xmlns:xlink="http://www.w3.org/1999/xlink" x="0px" y="0px"
	 viewBox="0 0 184 54" style="enable-background:new 0 0 184 54;" xml:space="preserve">
<style type="text/css">
	.st0{fill:#F4831F;}
	.st1{fill:#FFE68D;}
	.st2{fill-rule:evenodd;clip-rule:evenodd;fill:#F4831F;}
	.st3{fill:#FFFFFF;}
</style>
<g>
	<path class="st0" d="M47.7,20.6c-11.9,1.2-23.8,0-30.1-13.9c-0.9-1.9-1.3-4-2-6C15.5,0.5,15.3,0.2,15,0c-0.4-0.2-0.9,0.1-1,0.5
		c-0.6,1.5-0.1,3.8,0.2,5.3c0.3,1.9,1.4,7.8,7.3,14.4c-1.4,3.6-1.2,8.2-0.7,12c0.5,4.1,1.7,8.1,3.5,11.8c1.8,3.8,4.3,7.3,7.9,9.4
		c0.4,0.2,1.2,0.5,1.6,0.5c0.4,0,0.7-0.7,0.4-1.1c-1.8-2.2-2.6-5.1-3.4-7.8c-0.5-1.7-0.9-3.3-1.2-5c-0.8-4.6-0.4-9.3,1-13.8
		c0,0,0,0,0,0c5.6,0.9,11.9-1,16.8-3.8c0.4-0.3,0.8-0.5,1-1C48.4,20.9,48.2,20.6,47.7,20.6z"/>
	<path class="st0" d="M47.7,20.6c-11.9,1.2-23.8,0-30.1-13.9c-0.6-1.3-1-2.7-1.4-4.1c0.3,5.4,2.7,10.6,6.6,14.3
		c4.4,4.1,10.7,6.2,16.8,5.5c-2.6,2.4-8.6,2.4-12.8,0.7c-0.2-0.1-4.6,9.8,4.3,27.8c0.6,1.3,0.2,1.9-0.4,1.5c0.4,0.4,1,0.8,1.5,1
		c0.4,0.2,1.2,0.5,1.6,0.5c0.4,0,0.7-0.7,0.4-1.1c-1.8-2.2-2.6-5.1-3.4-7.8c-0.5-1.7-0.9-3.3-1.2-5c-0.8-4.6-0.4-9.3,1-13.8
		c0,0,0,0,0,0c5.6,0.9,11.9-1,16.8-3.8c0.4-0.3,0.8-0.5,1-1C48.4,20.9,48.2,20.6,47.7,20.6z"/>
	<path class="st1" d="M27.2,13.2c-1-1.3-1.4-3.1-0.6-4.9c1.3-2.9,5-4.8,8.1-3.7c1.2,0.4,2.1,1.4,2.6,2.5c1.8,4.1-2.2,8.3-6.4,8
		C29.4,15,28.1,14.3,27.2,13.2z"/>
	<path class="st1" d="M36.4,5.7c0.2,0.7,0.2,1.3,0.1,2c-0.4,2.2-2.4,4-4.5,4.7c-1.7,0.5-3.6,0.4-5.1-0.7c-0.2-0.1-0.4-0.3-0.5-0.5
		c0.1,0.7,0.5,1.4,0.9,2c0.8,1.1,2.2,1.8,3.7,2c4.2,0.3,8.1-3.9,6.4-8C37.1,6.6,36.8,6.1,36.4,5.7z"/>
	<path class="st1" d="M0,35.7c-0.1-0.5,0.1-1.1,0.4-1.6c0.8-1.2,2.6-1.5,3.8-0.8c1.6,0.9,1.6,3.2,0,4.2c-0.6,0.4-1.4,0.4-2.2,0.3
		C0.9,37.6,0.1,36.7,0,35.7z"/>
	<path class="st1" d="M43.5,16.4c-0.3,0.5-0.8,0.8-1.3,1c-0.8,0.2-1.7,0.1-2.4-0.4c-0.7-0.6-0.9-1.8-0.6-2.7
		c0.4-1.1,1.7-1.8,2.8-1.4c1,0.4,1.7,1.3,1.7,2.4C43.8,15.7,43.7,16,43.5,16.4z"/>
	<path class="st0" d="M14.5,36.3c-3-1.6-6.5-4.5-7.1-5.2c-2.9-3.2-5.1-7-5.8-11.3c-0.7-3.9,0-10.3,5.1-10.9c3.2-0.4,5.6,2.7,6.2,5.5
		c0.7,3,0.4,6,0.6,9c0.2,3,1,5.7,2.6,8.3c0.8,1.3,2.4,2.4,3,3.8c0.1,0.2,0.1,0.4,0.1,0.6C18.7,37.9,16.7,37.5,14.5,36.3z"/>
	<path class="st0" d="M16.4,37.1c1.4,0.4,2.4,0.3,2.7-1c0-0.2,0-0.4-0.1-0.6c-0.6-1.4-2.2-2.5-3-3.8c-1.5-2.6-2.4-5.3-2.6-8.3
		c-0.2-3,0.1-6.1-0.6-9c-0.7-2.8-3-5.9-6.2-5.5c-1.2,0.1-2,0.6-2.8,1.2C5,10,6.3,10.2,7.3,10.9c1.5,1.1,2.2,2.9,2.5,4.7
		c0.6,3.1,0.4,6.4,0.8,9.6c0.4,3.2,1.7,6.5,4.4,8.2c0.8,0.5,1.8,1,2,1.9C17.3,36,16.9,36.7,16.4,37.1z"/>
	<path class="st0" d="M24.3,48.3c-2.9-4.2-8.3-7.4-13.2-8.1c-3.4-0.4-8.6,1.9-6.4,6.1c0.9,1.7,2.7,2.2,4.5,2.1
		c2.3-0.1,4.7-0.2,7,0.2c2.5,0.4,4.2,1.6,6.4,2.6c0.6,0.3,2.2,1.1,2.8,0.7C26.6,51.3,24.8,49,24.3,48.3z"/>
	<path class="st0" d="M23.8,49.4c-0.7,0.1-1.3-0.6-1.7-1.1c-1.3-1.5-3.4-2.4-5.4-2.5c-2-0.2-4.1,0.1-6.1,0.5
		c-1.2,0.3-2.4,0.6-3.6,0.5c-0.8,0-1.7-0.3-2.4-0.8c0.1,0.1,0.1,0.3,0.2,0.4c0.9,1.7,2.7,2.2,4.5,2.1c2.3-0.1,4.7-0.2,7,0.2
		c2.5,0.4,4.2,1.6,6.4,2.6c0.6,0.3,2.2,1.1,2.8,0.7c0.9-0.6-0.3-2.3-1-3.2C24.4,49,24.2,49.3,23.8,49.4z"/>
	<path class="st0" d="M36.3,52c-0.3-0.2-0.5-0.4-0.6-0.8c-1.1-1.8-1.1-4.5-1.1-6.5c0-2.1,0.2-4.3,0.7-6.4c1-4,2.9-8,6.5-10.2
		c2.4-1.5,5.7-2.2,8.4-1c2.4,1.1,4.2,4.3,2.6,6.8c-1.5,2.4-4.6,3-6.8,4.5c-1.8,1.2-3.3,3.1-4.3,5.1c-0.9,1.8-1.1,3.8-1.5,5.7
		c-0.3,1.2-0.9,2.9-2.3,3.2C37.2,52.5,36.7,52.3,36.3,52z"/>
	<path class="st2" d="M3.9,13.7c-0.1-0.1-0.4,0-0.4,0.2C2.6,17.6,3.2,21.6,5.1,25c0.5,1,1.2,1.8,1.9,2.6c0,0,0,0,0.1,0
		c0,0,0,0-0.1,0c-0.7-0.8-1.4-1.7-1.9-2.6c-1.9-3.4-2.5-7.4-1.6-11.1C3.6,13.6,3.8,13.6,3.9,13.7z M6.8,27.9c-0.7-0.8-1.4-1.7-2-2.7
		c-2-3.4-2.6-7.6-1.6-11.4l0,0l0,0c0.1-0.4,0.5-0.5,0.8-0.5c0.1,0,0.3,0.1,0.4,0.3c0.1,0.2,0.1,0.3,0.1,0.5l0,0h0
		c-1.1,4.5,0.1,9.5,3.3,12.9c0.1,0.1,0.2,0.3,0.2,0.5c0,0.2-0.1,0.3-0.2,0.4C7.6,28,7.5,28,7.3,28.1C7.1,28.1,6.9,28,6.8,27.9z
		 M23.4,37.1C23.4,37.1,23.4,37.1,23.4,37.1c-1.3-4.2-1.5-8.7-0.8-13c0,0,0-0.1,0-0.1c0,0,0,0,0,0.1C21.8,28.5,22.1,32.9,23.4,37.1
		C23.4,37.1,23.4,37.1,23.4,37.1z M22.5,23.6c-0.2,0.1-0.3,0.3-0.3,0.5c-0.7,4.4-0.4,8.9,0.8,13.1l0,0l0,0c0.2,0.4,0.5,0.5,0.8,0.4
		c0.1,0,0.3-0.1,0.4-0.3c0.1-0.2,0.1-0.4,0.1-0.5c-1.2-4-1.5-8.3-0.8-12.4l0,0c0.1-0.4-0.2-0.7-0.5-0.8
		C22.8,23.6,22.6,23.6,22.5,23.6z M26.7,43.8c-0.6-1.4-1.1-2.8-1.7-4.2c-0.1-0.1-0.2-0.3-0.3-0.4c-0.1-0.1-0.3-0.1-0.5-0.1
		c-0.2,0-0.3,0.2-0.4,0.3c-0.1,0.1-0.1,0.3-0.1,0.6l0,0c0.6,1.4,1.1,2.8,1.7,4.2c0.1,0.1,0.2,0.3,0.3,0.4c0.1,0.1,0.3,0.1,0.5,0.1
		c0.2,0,0.3-0.2,0.4-0.3C26.8,44.2,26.8,44,26.7,43.8L26.7,43.8z M26.4,43.9c-0.6-1.4-1.1-2.8-1.7-4.2c0,0,0,0,0-0.1c0,0,0,0,0,0.1
		C25.2,41.1,25.8,42.5,26.4,43.9c0.1,0.1-0.1,0.3-0.2,0.3c0,0,0,0,0,0c0,0,0,0,0,0C26.3,44.2,26.4,44.1,26.4,43.9z M15.8,43.6
		c0.1,0,0.1,0.1,0.1,0.2C15.9,43.7,15.8,43.7,15.8,43.6L15.8,43.6z M6.6,43.4C6.6,43.3,6.6,43.3,6.6,43.4
		C6.6,43.3,6.6,43.3,6.6,43.4C6.6,43.4,6.5,43.4,6.6,43.4C6.5,43.4,6.6,43.4,6.6,43.4z M6.1,42.5c3.1-2,7.2-1.6,9.9,0.8
		c0.2,0.1,0.2,0.3,0.2,0.5c0,0.2-0.1,0.3-0.2,0.4c-0.2,0.2-0.6,0.3-0.9,0.1l0,0l0,0c-2.3-2-5.7-2.3-8.3-0.6
		c-0.2,0.1-0.4,0.1-0.6,0.1c-0.2-0.1-0.3-0.2-0.4-0.3C5.7,43.2,5.7,42.8,6.1,42.5L6.1,42.5z M37.5,37c0,0,0.1-0.1,0.1-0.2
		c0.5-2.1,1.6-4,3.2-5.5c0.1-0.1,0.1-0.2,0.1-0.3c0,0.1,0,0.2-0.1,0.3c-1.6,1.5-2.7,3.3-3.2,5.5C37.5,36.9,37.5,36.9,37.5,37z
		 M40.1,30.7L40.1,30.7L40.1,30.7c-1.7,1.6-2.9,3.6-3.5,5.9l0,0c0,0.2,0,0.4,0.1,0.5c0.1,0.1,0.2,0.2,0.4,0.3c0.1,0,0.3,0,0.5-0.1
		c0.2-0.1,0.3-0.2,0.3-0.4c0.5-2.1,1.5-3.8,3.1-5.3c0.1-0.1,0.2-0.3,0.2-0.5c0-0.2-0.1-0.3-0.2-0.4C40.8,30.5,40.4,30.4,40.1,30.7z
		 M45.5,27.4L45.5,27.4L45.5,27.4c-1.4,0.3-2.6,0.9-3.6,1.9l0,0l0,0c-0.1,0.1-0.2,0.3-0.2,0.5c0,0.2,0.1,0.3,0.2,0.4
		c0.1,0.1,0.3,0.2,0.4,0.2c0.2,0,0.4,0,0.5-0.2c0.8-0.8,1.8-1.3,2.9-1.5c0.2,0,0.4-0.1,0.5-0.3c0.1-0.2,0.1-0.3,0.1-0.5
		C46.2,27.6,46,27.3,45.5,27.4z"/>
	<path class="st0" d="M50.1,27.2c-0.5-0.2-1-0.4-1.5-0.5c0.3,0.2,0.7,0.4,1,0.7c1.2,1.1,1.7,3.2,0.7,4.6c-0.6,1-1.8,1.4-2.9,1.7
		c-1.1,0.3-2.3,0.4-3.3,0.8c-2.3,0.8-4,3-4.9,5.3c-0.9,2.3-1.1,4.8-1.4,7.3c-0.1,0.6-0.1,1.2-0.4,1.7c-0.3,0.5-0.9,0.9-1.5,0.7
		c-0.4-0.1-0.7-0.5-1-0.9c-0.1-0.2-0.2-0.4-0.3-0.5c0.1,1.2,0.4,2.4,1,3.3c0.2,0.3,0.4,0.6,0.6,0.8c0.4,0.3,1,0.5,1.6,0.3
		c1.4-0.3,2-2,2.3-3.2c0.4-1.9,0.6-3.9,1.5-5.7c1-2,2.5-3.8,4.3-5.1c2.2-1.5,5.3-2.1,6.8-4.5C54.3,31.5,52.5,28.3,50.1,27.2z"/>
</g>
<g>
	<path class="st3" d="M58.8,35.7V19.2h4.3v6.6l5.1-6.6h5.2L67,27.1l6.6,8.7h-5.4l-5.1-6.9v6.9H58.8z"/>
	<path class="st3" d="M75.1,20.4c0-1.3,1-2.3,2.4-2.3c1.4,0,2.4,1,2.4,2.3c0,1.3-1,2.3-2.4,2.3C76.1,22.7,75.1,21.6,75.1,20.4z
		 M75.4,35.7V23.9h4.3v11.9H75.4z"/>
	<path class="st3" d="M82.1,29.8c0-3,1.7-6.2,5.1-6.2c2.3,0,3.3,1.5,3.3,1.5h0.2v-6.4h4.3v17h-4.3v-1.3h-0.2c0,0-1,1.5-3.3,1.5
		C83.8,36,82.1,32.8,82.1,29.8z M90.8,29.8c0-1.3-0.7-2.8-2.2-2.8c-1.5,0-2.2,1.4-2.2,2.8c0,1.3,0.7,2.8,2.2,2.8
		C90.1,32.6,90.8,31.1,90.8,29.8z"/>
	<path class="st3" d="M100.9,35.7l-4.2-11.9h4.2l2.3,7.2l2.2-7.2h4.2l-4.3,11.9H100.9z"/>
	<path class="st3" d="M110.2,29.8c0-3,1.9-6.1,6.2-6.1c3.5,0,5.9,2.3,5.9,6.3v1h-7.8c0.1,1,0.8,1.9,2.1,1.9c1.5,0,1.8-1,1.8-1h3.9
		c0,0-0.6,4.2-5.7,4.2C112.2,36,110.2,32.9,110.2,29.8z M118.2,28.5c0-1.2-0.8-1.8-1.9-1.8c-1,0-1.8,0.6-1.9,1.8H118.2z"/>
	<path class="st3" d="M124.2,35.7V23.9h4.3v1.7h0.1c0.5-0.8,1.3-1.9,3.3-1.9c2.9,0,3.9,2.3,3.9,4.3v7.8h-4.3v-6.9
		c0-0.9-0.4-1.7-1.5-1.7c-1.2,0-1.5,0.9-1.5,1.7v6.9H124.2z"/>
	<path class="st3" d="M139.3,31.5v-4.2h-1.9v-3.4h1.9V21h4.3v2.9h2.3v3.4h-2.3v4.1c0,0.8,0.4,1.4,1.6,1.4c0.5,0,0.9-0.1,0.9-0.1v3.1
		c0,0-1,0.2-2.2,0.2C139.3,36,139.3,32.6,139.3,31.5z"/>
	<path class="st3" d="M147.9,32v-8.1h4.2v7.1c0,0.9,0.4,1.6,1.4,1.6c1,0,1.4-0.7,1.4-1.6v-7.1h4.3v11.9h-4.3v-1.7h-0.1
		c-0.6,1.2-1.7,1.9-3.3,1.9C148.9,36,147.9,34.1,147.9,32z"/>
	<path class="st3" d="M161.4,35.7V23.9h4.2v1.9h0.1c0.3-1,1.1-2.1,3.1-2.1c0.7,0,1.1,0.2,1.1,0.2V28c0,0-0.4-0.2-1.2-0.2
		c-2.1,0-3.1,1.1-3.1,3.6v4.3H161.4z"/>
	<path class="st3" d="M171.2,29.8c0-3,1.9-6.1,6.2-6.1c3.5,0,5.9,2.3,5.9,6.3v1h-7.8c0.1,1,0.8,1.9,2.1,1.9c1.5,0,1.8-1,1.8-1h3.9
		c0,0-0.6,4.2-5.7,4.2C173.2,36,171.2,32.9,171.2,29.8z M179.2,28.5c0-1.2-0.8-1.8-1.9-1.8c-1,0-1.8,0.6-1.9,1.8H179.2z"/>
</g>
</svg>
