<?xml version="1.0" encoding="utf-8"?>
<!-- Generator: Adobe Illustrator 28.1.0, SVG Export Plug-In . SVG Version: 6.00 Build 0)  -->
<svg version="1.1" id="Layer_1" xmlns="http://www.w3.org/2000/svg" xmlns:xlink="http://www.w3.org/1999/xlink" x="0px" y="0px"
	 viewBox="0 0 185 54" style="enable-background:new 0 0 185 54;" xml:space="preserve">
<style type="text/css">
	.st0{fill:#F4831F;}
	.st1{fill:#FFE68D;}
	.st2{fill-rule:evenodd;clip-rule:evenodd;fill:#F4831F;}
	.st3{fill:#FFFFFF;}
</style>
<g>
	<path class="st0" d="M48.6,20.5c-11.9,1.2-23.7,0-30.1-13.9c-0.9-1.9-1.3-4-2-6c-0.1-0.3-0.3-0.6-0.6-0.8c-0.4-0.2-0.9,0.1-1,0.5
		c-0.6,1.5-0.1,3.8,0.2,5.3c0.3,1.9,1.4,7.8,7.3,14.4c-1.4,3.6-1.1,8.1-0.7,11.9c0.5,4.1,1.7,8.1,3.4,11.8c1.8,3.7,4.3,7.3,7.9,9.4
		c0.4,0.2,1.1,0.5,1.6,0.5c0.4,0,0.7-0.7,0.4-1.1c-1.8-2.2-2.6-5.1-3.4-7.8c-0.5-1.7-0.9-3.3-1.2-5c-0.8-4.6-0.4-9.3,1-13.8
		c0,0,0,0,0,0c5.5,0.9,11.9-1,16.7-3.8c0.4-0.3,0.8-0.5,1-1C49.3,20.9,49,20.5,48.6,20.5z"/>
	<path class="st0" d="M48.6,20.5c-11.9,1.2-23.7,0-30.1-13.9c-0.6-1.3-1-2.7-1.4-4.1c0.3,5.3,2.7,10.6,6.6,14.2
		c4.4,4.1,10.7,6.2,16.8,5.5c-2.6,2.4-8.6,2.4-12.8,0.7c-0.2-0.1-4.6,9.8,4.3,27.8c0.6,1.3,0.2,1.9-0.4,1.5c0.4,0.4,1,0.8,1.5,1
		c0.4,0.2,1.1,0.5,1.6,0.5c0.4,0,0.7-0.7,0.4-1.1c-1.8-2.2-2.6-5.1-3.4-7.8c-0.5-1.7-0.9-3.3-1.2-5c-0.8-4.6-0.4-9.3,1-13.8
		c0,0,0,0,0,0c5.5,0.9,11.9-1,16.7-3.8c0.4-0.3,0.8-0.5,1-1C49.3,20.9,49,20.5,48.6,20.5z"/>
	<path class="st1" d="M28.1,13.1c-1-1.3-1.4-3.1-0.6-4.9c1.3-2.9,5-4.8,8.1-3.7c1.2,0.4,2.1,1.4,2.6,2.5c1.8,4.1-2.2,8.3-6.4,8
		C30.3,15,29,14.2,28.1,13.1z"/>
	<path class="st1" d="M37.2,5.6c0.2,0.7,0.2,1.3,0.1,2c-0.4,2.2-2.4,4-4.5,4.7c-1.7,0.5-3.6,0.4-5-0.7c-0.2-0.1-0.4-0.3-0.5-0.5
		c0.1,0.7,0.5,1.4,0.9,2c0.8,1.1,2.2,1.8,3.7,2c4.1,0.3,8.1-3.9,6.4-8C37.9,6.6,37.6,6.1,37.2,5.6z"/>
	<path class="st1" d="M0.9,35.5C0.9,35,1,34.5,1.3,34c0.8-1.2,2.6-1.5,3.8-0.8c1.6,0.9,1.6,3.2,0,4.2c-0.6,0.4-1.4,0.4-2.2,0.3
		C1.8,37.5,1,36.6,0.9,35.5z"/>
	<path class="st1" d="M44.4,16.3c-0.3,0.5-0.8,0.8-1.3,1c-0.8,0.2-1.7,0.1-2.4-0.4c-0.7-0.6-0.9-1.8-0.6-2.7
		c0.4-1.1,1.7-1.8,2.8-1.4c1,0.4,1.7,1.3,1.7,2.4C44.7,15.6,44.6,16,44.4,16.3z"/>
	<path class="st0" d="M15.3,36.2c-3-1.6-6.5-4.5-7.1-5.1c-2.9-3.2-5.1-7-5.8-11.3c-0.7-3.9,0-10.3,5-10.9c3.2-0.4,5.5,2.7,6.2,5.5
		c0.7,3,0.4,6,0.6,9c0.2,3,1,5.7,2.6,8.3c0.8,1.3,2.4,2.4,3,3.8c0.1,0.2,0.1,0.4,0.1,0.6C19.6,37.8,17.6,37.4,15.3,36.2z"/>
	<path class="st0" d="M17.2,37c1.4,0.4,2.4,0.3,2.7-1c0-0.2,0-0.4-0.1-0.6c-0.6-1.4-2.2-2.5-3-3.8c-1.5-2.6-2.4-5.3-2.6-8.3
		c-0.2-3,0.1-6-0.6-9c-0.7-2.8-3-5.8-6.2-5.5c-1.1,0.1-2,0.6-2.8,1.2c1.2-0.1,2.5,0.1,3.4,0.8c1.5,1.1,2.2,2.9,2.5,4.7
		c0.6,3.1,0.4,6.4,0.8,9.6c0.4,3.2,1.7,6.5,4.4,8.2c0.8,0.5,1.8,1,2,1.9C18.1,35.9,17.8,36.6,17.2,37z"/>
	<path class="st0" d="M25.2,48.2c-2.9-4.2-8.3-7.4-13.2-8.1c-3.4-0.4-8.5,1.9-6.4,6c0.9,1.7,2.7,2.2,4.5,2.1c2.3-0.1,4.7-0.2,7,0.2
		c2.5,0.4,4.2,1.6,6.4,2.6c0.6,0.3,2.2,1.1,2.8,0.7C27.5,51.1,25.6,48.9,25.2,48.2z"/>
	<path class="st0" d="M24.7,49.3c-0.7,0.1-1.3-0.6-1.7-1.1c-1.3-1.5-3.4-2.4-5.4-2.5c-2-0.2-4.1,0.1-6.1,0.5
		c-1.2,0.3-2.4,0.6-3.6,0.5c-0.8,0-1.7-0.3-2.4-0.8c0.1,0.1,0.1,0.3,0.2,0.4c0.9,1.7,2.7,2.2,4.5,2.1c2.3-0.1,4.7-0.2,7,0.2
		c2.5,0.4,4.2,1.6,6.4,2.6c0.6,0.3,2.2,1.1,2.8,0.7c0.9-0.6-0.3-2.3-1-3.2C25.3,48.9,25,49.2,24.7,49.3z"/>
	<path class="st0" d="M37.1,51.9c-0.3-0.2-0.5-0.4-0.6-0.8c-1.1-1.8-1.1-4.4-1.1-6.5c0-2.1,0.2-4.3,0.7-6.4c1-4,2.9-7.9,6.5-10.2
		c2.4-1.5,5.7-2.2,8.4-1c2.4,1.1,4.1,4.3,2.6,6.7c-1.5,2.4-4.6,3-6.8,4.4c-1.8,1.2-3.3,3.1-4.3,5.1c-0.9,1.8-1.1,3.7-1.5,5.7
		c-0.3,1.2-0.9,2.9-2.3,3.2C38.1,52.4,37.5,52.2,37.1,51.9z"/>
	<path class="st2" d="M4.8,13.6c-0.1-0.1-0.4,0-0.4,0.2C3.5,17.5,4.1,21.5,6,24.9c0.5,1,1.2,1.8,1.9,2.6c0,0,0,0,0.1,0
		c0,0,0,0-0.1,0c-0.7-0.8-1.4-1.7-1.9-2.6c-1.9-3.4-2.5-7.4-1.6-11.1C4.5,13.5,4.7,13.5,4.8,13.6z M7.7,27.8c-0.7-0.8-1.4-1.7-2-2.7
		c-2-3.4-2.6-7.6-1.6-11.4l0,0l0,0c0.1-0.4,0.5-0.5,0.8-0.5c0.1,0,0.3,0.1,0.4,0.3c0.1,0.2,0.1,0.3,0.1,0.5l0,0h0
		c-1.1,4.5,0.1,9.4,3.3,12.8c0.1,0.1,0.2,0.3,0.2,0.5c0,0.2-0.1,0.3-0.2,0.4C8.5,27.9,8.4,28,8.2,28C8,28,7.8,27.9,7.7,27.8z
		 M24.3,37C24.2,37,24.2,37,24.3,37c-1.3-4.2-1.5-8.6-0.8-13c0,0,0-0.1,0-0.1c0,0,0,0,0,0.1C22.7,28.4,23,32.8,24.3,37
		C24.2,37,24.2,37,24.3,37z M23.4,23.6c-0.2,0.1-0.3,0.3-0.3,0.5c-0.7,4.4-0.4,8.8,0.8,13.1l0,0l0,0c0.2,0.4,0.5,0.5,0.8,0.4
		c0.1,0,0.3-0.1,0.4-0.3c0.1-0.2,0.1-0.4,0.1-0.5c-1.2-4-1.5-8.3-0.8-12.4l0,0c0.1-0.4-0.2-0.7-0.5-0.8
		C23.7,23.5,23.5,23.5,23.4,23.6z M27.6,43.7c-0.6-1.4-1.1-2.8-1.7-4.2c-0.1-0.1-0.2-0.3-0.3-0.4c-0.1-0.1-0.3-0.1-0.5-0.1
		c-0.2,0-0.3,0.2-0.4,0.3c-0.1,0.1-0.1,0.3-0.1,0.6l0,0c0.6,1.4,1.1,2.8,1.7,4.2c0.1,0.1,0.2,0.3,0.3,0.4c0.1,0.1,0.3,0.1,0.5,0.1
		c0.2,0,0.3-0.2,0.4-0.3C27.6,44.1,27.7,43.9,27.6,43.7L27.6,43.7z M27.2,43.8c-0.6-1.4-1.1-2.8-1.7-4.2c0,0,0,0,0-0.1
		c0,0,0,0,0,0.1C26.1,41,26.7,42.4,27.2,43.8c0.1,0.1-0.1,0.3-0.2,0.3c0,0,0,0,0,0c0,0,0,0,0,0C27.2,44.1,27.3,43.9,27.2,43.8z
		 M16.7,43.5c0.1,0,0.1,0.1,0.1,0.2C16.7,43.6,16.7,43.5,16.7,43.5L16.7,43.5z M7.5,43.2C7.5,43.2,7.5,43.2,7.5,43.2
		C7.5,43.2,7.5,43.2,7.5,43.2C7.4,43.3,7.4,43.3,7.5,43.2C7.4,43.3,7.4,43.3,7.5,43.2z M7,42.4c3.1-2,7.2-1.6,9.9,0.8
		c0.2,0.1,0.2,0.3,0.2,0.5c0,0.2-0.1,0.3-0.2,0.4c-0.2,0.2-0.6,0.3-0.9,0.1l0,0l0,0c-2.3-2-5.7-2.3-8.3-0.6
		c-0.2,0.1-0.4,0.1-0.6,0.1c-0.2-0.1-0.3-0.2-0.4-0.3C6.6,43.1,6.6,42.6,7,42.4L7,42.4z M38.3,36.9c0,0,0.1-0.1,0.1-0.2
		c0.5-2.1,1.6-4,3.2-5.5c0.1-0.1,0.1-0.2,0.1-0.3c0,0.1,0,0.2-0.1,0.3c-1.6,1.5-2.7,3.3-3.2,5.5C38.4,36.8,38.4,36.8,38.3,36.9z
		 M41,30.6L41,30.6L41,30.6c-1.7,1.6-2.9,3.6-3.5,5.9l0,0c0,0.2,0,0.4,0.1,0.5c0.1,0.1,0.2,0.2,0.4,0.3c0.1,0,0.3,0,0.5-0.1
		c0.2-0.1,0.3-0.2,0.3-0.4c0.5-2,1.5-3.8,3.1-5.3c0.1-0.1,0.2-0.3,0.2-0.5c0-0.2-0.1-0.3-0.2-0.4C41.7,30.4,41.3,30.3,41,30.6z
		 M46.4,27.3L46.4,27.3L46.4,27.3c-1.4,0.3-2.6,0.9-3.6,1.9l0,0l0,0c-0.1,0.1-0.2,0.3-0.2,0.5c0,0.2,0.1,0.3,0.2,0.4
		c0.1,0.1,0.3,0.2,0.4,0.2c0.2,0,0.4,0,0.5-0.2c0.8-0.8,1.8-1.3,2.9-1.5c0.2,0,0.4-0.1,0.5-0.3c0.1-0.2,0.1-0.3,0.1-0.5
		C47.1,27.5,46.8,27.2,46.4,27.3z"/>
	<path class="st0" d="M50.9,27.1c-0.5-0.2-1-0.4-1.5-0.5c0.3,0.2,0.7,0.4,1,0.7c1.2,1.1,1.7,3.2,0.7,4.6c-0.6,1-1.8,1.4-2.9,1.7
		c-1.1,0.3-2.3,0.4-3.3,0.8c-2.3,0.8-4,3-4.9,5.3c-0.9,2.3-1.1,4.8-1.4,7.3c-0.1,0.6-0.1,1.2-0.4,1.7c-0.3,0.5-0.9,0.9-1.5,0.7
		c-0.4-0.1-0.7-0.5-1-0.9c-0.1-0.2-0.2-0.4-0.3-0.5c0.1,1.2,0.4,2.4,1,3.3c0.2,0.3,0.4,0.6,0.6,0.8c0.4,0.3,1,0.5,1.6,0.3
		c1.4-0.3,2-2,2.3-3.2c0.4-1.9,0.6-3.9,1.5-5.7c1-2,2.5-3.8,4.3-5.1c2.2-1.5,5.3-2.1,6.8-4.4C55.1,31.4,53.4,28.2,50.9,27.1z"/>
</g>
<g>
	<path class="st3" d="M61.1,35.6V19.1h4.3v6.6l5.1-6.6h5.2L69.2,27l6.5,8.6h-5.4l-5.1-6.9v6.9H61.1z"/>
	<path class="st3" d="M77.3,20.3c0-1.3,1-2.3,2.4-2.3c1.4,0,2.4,1,2.4,2.3c0,1.2-1,2.3-2.4,2.3C78.3,22.6,77.3,21.6,77.3,20.3z
		 M77.6,35.6V23.8h4.2v11.8H77.6z"/>
	<path class="st3" d="M84.3,29.7c0-3,1.6-6.1,5.1-6.1c2.3,0,3.3,1.5,3.3,1.5h0.2v-6.4h4.2v16.9h-4.2v-1.3h-0.2c0,0-1,1.5-3.3,1.5
		C85.9,35.8,84.3,32.7,84.3,29.7z M93,29.7c0-1.3-0.7-2.8-2.2-2.8c-1.5,0-2.2,1.4-2.2,2.8c0,1.3,0.7,2.8,2.2,2.8
		C92.2,32.5,93,31.1,93,29.7z"/>
	<path class="st3" d="M102.9,35.6l-4.2-11.8h4.2l2.3,7.1l2.2-7.1h4.2l-4.2,11.8H102.9z"/>
	<path class="st3" d="M112.2,29.7c0-3,1.9-6.1,6.2-6.1c3.5,0,5.8,2.3,5.8,6.2v1h-7.8c0.1,1,0.8,1.9,2.1,1.9c1.4,0,1.8-1,1.8-1h3.9
		c0,0-0.6,4.2-5.6,4.2C114.2,35.8,112.2,32.8,112.2,29.7z M120.2,28.4c0-1.2-0.8-1.8-1.9-1.8c-1,0-1.8,0.6-1.9,1.8H120.2z"/>
	<path class="st3" d="M126.2,35.6V23.8h4.2v1.7h0.1c0.5-0.8,1.3-1.9,3.3-1.9c2.9,0,3.8,2.3,3.8,4.3v7.7h-4.2v-6.9
		c0-0.8-0.4-1.7-1.5-1.7c-1.2,0-1.5,0.9-1.5,1.7v6.9H126.2z"/>
	<path class="st3" d="M141.2,31.4v-4.2h-1.9v-3.3h1.9v-2.9h4.2v2.9h2.3v3.3h-2.3v4.1c0,0.8,0.4,1.4,1.6,1.4c0.5,0,0.8-0.1,0.8-0.1
		v3.1c0,0-1,0.2-2.2,0.2C141.2,35.8,141.2,32.5,141.2,31.4z"/>
	<path class="st3" d="M149.8,31.9v-8.1h4.2v7c0,0.9,0.4,1.6,1.4,1.6c1,0,1.4-0.7,1.4-1.6v-7h4.2v11.8h-4.2V34h-0.1
		c-0.6,1.2-1.7,1.9-3.3,1.9C150.7,35.8,149.8,34,149.8,31.9z"/>
	<path class="st3" d="M163.2,35.6V23.8h4.2v1.9h0.1c0.3-1,1-2.1,3.1-2.1c0.7,0,1.1,0.2,1.1,0.2v4.2c0,0-0.4-0.2-1.2-0.2
		c-2.1,0-3.1,1.1-3.1,3.6v4.3H163.2z"/>
	<path class="st3" d="M173,29.7c0-3,1.9-6.1,6.2-6.1c3.5,0,5.8,2.3,5.8,6.2v1h-7.8c0.1,1,0.8,1.9,2.1,1.9c1.4,0,1.8-1,1.8-1h3.9
		c0,0-0.6,4.2-5.6,4.2C175,35.8,173,32.8,173,29.7z M181,28.4c0-1.2-0.8-1.8-1.9-1.8c-1,0-1.8,0.6-1.9,1.8H181z"/>
</g>
</svg>
